<svg xmlns="http://www.w3.org/2000/svg" width="1286.304" height="1265.272" viewBox="0 0 1286.304 1265.272"><g fill="#FFF"><path d="M675.498 491.124c14.71 1.377 23.402-13.927 25.48-24.03 2.38-8.52-4.158-5.745-6.833-4.16 0 0-18.92 15.154-30.013 15.452-5.646-.297-5.274 3.046-3.27 5.646 3.197 4.16 6.316 6.017 14.636 7.092z"/><path d="M1267.052 421.926c-225.835 36.848-320.162-37.373-376.787-70.127-121.237-70.13-171.458 18.423-155.707 89.145 15.154 57.944-53.488 67.75-57.054 73.693-8.098 6.737-12.777 2.675-13.074 25.257-.297 16.047-19.972 21.1-19.972 21.1s-22.286-5.053-22.583-21.1c-.297-22.582-4.978-18.52-13.075-25.257-3.565-5.942-72.208-15.75-57.053-73.693 15.75-70.722-34.47-159.273-155.707-89.146-56.625 32.753-150.953 106.974-376.788 70.126-19.154-3.565-24.23 7.132-14.263 24.96 16.64 33.282 116.78 200.58 369.654 68.94 19.612-11.886 28.527-5.943 9.51 8.32-19.02 14.264-85.976 62.204-194.932 55.864-17.036-2.377-32.488.397-14.263 22.583 40.016 47.546 169.575 116.842 272.982 17.793 13.867-18.98 21.792-12.644 7.528 7.564-16.243 22.582-34.47 39.617-69.335 51.11-28.13 8.714-23.376 19.81-9.113 26.942 36.85 19.808 125.992 38.035 164.027-39.225 8.322-26.148 12.58-3.607 9.456 5.168-9.51 35.36-23.32 83.184-51.058 118.447-20.207 28.527 11.886 43.98 30.903 43.98 19.02 0 47.545-13.075 53.488-28.528 10.305-21.004 14.63-11.102 11.098 3.957-.038 11.888-25.362 61.417 15.05 105.397 18.424 27.04 34.47 23.77 34.47 23.77s13.435 3.27 31.857-23.77c40.414-43.98 15.088-93.51 15.05-105.396-3.53-15.058.796-24.96 11.1-3.956 5.944 15.453 34.47 28.527 53.488 28.527s51.11-15.45 30.905-43.978c-27.74-35.264-41.55-83.086-51.058-118.447-3.125-8.775 1.133-31.316 9.455-5.168 38.036 77.26 127.18 59.032 164.028 39.225 14.263-7.132 19.015-18.23-9.11-26.943-34.87-11.493-53.095-28.528-69.34-51.11-14.263-20.208-6.338-26.546 7.53-7.564 103.406 99.05 232.967 29.753 272.982-17.793 18.226-22.186 2.773-24.96-14.263-22.583-108.956 6.34-175.915-41.6-194.934-55.864-19.018-14.264-10.102-20.206 9.51-8.32 252.876 131.64 353.017-35.658 369.655-68.94 9.973-17.828 4.897-28.525-14.258-24.96z"/><path d="M610.806 491.124c8.32-1.074 11.44-2.932 14.634-7.092 2.006-2.6 2.377-5.943-3.268-5.646-11.095-.298-30.013-15.45-30.013-15.45-2.677-1.587-9.213-4.36-6.835 4.16 2.08 10.1 10.77 25.404 25.48 24.028z"/></g></svg>